<svg width="1080" height="1080" viewBox="0 0 1080 1080" fill="none" xmlns="http://www.w3.org/2000/svg">
  <path d="M201.001 272C180 23.5 239-28 382.001 124 447.5 95 557 100.5 623 127 795.501-2.5 844 24.5 795.501 284c52.046 138.194 26.273 228.201-64.001 277.051C808.73 654.44 867.323 745.604 860.043 873.5c106.457-55.5 0-169-1.543-244.5-2.425-118.694 69-184.5 130-149s-7.77 105.736-12 143.5c-7 62.5 27.33 119.387 30.5 170.5 7 113-119.5 197.5-185 169.514-44.383 39.786-119.88 50.946-178 42.986-17.467 5.03-26.21 5.07-38.5-2-14.083 1.62-24.385-6.4-28.903-18l-40.097.589c-11.896 14.371-26.191 22.641-44.5 21.411-19.395 2.35-30.084 2.4-48-5-22.104-7.033-29.829-13.537-36.505-29-7.201 9.713-18.67 17.653-37.995 27-9 3-33.5 4.5-49 0-10.311-4.211-19.536-10.098-26.488-17.5-16.038 3.54-23.512 7-46.512 4-24.5 1.5-63-33.5-6-71-47-50-45.5-148 6.277-192-3.052-53.423 4.41-105.835 24.223-160.609C146.184 508.329 136.666 386.372 201.001 272" fill="#fff"/>
  <path d="M501 384c-57.804-112.98-12.629-185.376 24.5-280 31.089 1.279 51.802 5.252 97.5 21C815.681-20.153 834.867 47.05 798.5 285c14 26 31 88.5 22 143-52.52 9.517-72.292 8.009-121 7-98.486 53.07-165.5 13.5-198.5-51M385 239.5c30-53 34.336-70.313 0-116.5C240.509-7.507 189.927-.715 199.5 273.5c-1.267 9.007-30.397 65.252-28.5 72.5 6.731 25.714 60.163-8.308 74-19 55-42.5 97.048-11.618 140-87.5m112.998 589c3.502-6.999 56.501 8.501 107-4.5l-13.499 39.501c-57.499 2.5-106.067-9.885-93.501-35.001M347 818.5c-1.5-17.5-51.5-2.5-87-11.5l10.5 35.5c51.5 6 77.581-11.387 76.5-24M681.602 679c-10.791-20.136 35.001-29 75.5-87l29.5 44 18.5 27.5 25 50 17.5 39 13.5 65.5c-73 26.5-128.019 14.5-122.5-12 4.214-20.234 53-11 109-53.5l-17.5-39c-24.5 25.5-85.644 42.569-96 11.5-5-15 46-21.5 71-61.5l-18.5-27.5c-27 52-96.426 59-105 43M857.5 906l6-36 32.5-23.5c12.842 36.056 19.635 58.648 47.5 84-19.603 15.976-31.671 24.133-59.5 34-18.343-19.174-23.834-32.133-26.5-58.5M994 865c-21.964-.677-58.229-9.917-87-42 1.971-26.532.99-38.637-5.5-58 36.127 17.408 58.863 19.52 104.5 9.5 4.43 35.697 1.63 55.49-12 90.5m-7-146c-40.358 9.397-62.666 11.319-101 0l-24.5-69c42.933 14.406 68.336 14.336 115.5 3zM859.5 599c31.148 21.486 81 23 116.5 23l17-45.5c-41.5-2.5-86.5-14-113-44.5-15.873 25.913-13.503 38.689-20.5 67" fill="#797979"/>
  <path d="M322 581.5c-18.366-4.685-35.009-10.429-50-17.109M595.999 600c54.589-6.912 100.025-19.753 135.501-38.949m-459.5 3.34C146.183 508.329 136.665 386.372 201 272 180 23.5 239-28 382 124c65.5-29 175-23.5 240.999 3C795.5-2.5 844 24.5 795.5 284c52.046 138.194 26.273 228.201-64 277.051m-459.5 3.34C252.186 619.165 244.724 671.577 247.776 725m72.724 276.5c15.5 4.5 40 3 49 0m-49 0c-9.334-15.089-10.167-31.253-3-45m3 45c-10.312-4.211-19.537-10.098-26.489-17.5m75.489 17.5c-12-11.5-13.317-25.734-9-42.5m9 42.5c19.324-9.347 30.793-17.287 37.994-27M420.5 932c-9.5-59.5-16.29-97.037-37-141m37 141c7.703-5.199 10.999-8.643 15.5-15.5 13.63-60.095 17.762-87.646 21.5-130.5m-37 146c-2.353 19.084-5.116 31.857-13.006 42.5M247.776 725c3.417 59.823 20.018 120.911 47.224 188-20.759 30.101-16.608 54.373-.989 71m-46.235-259C196 769 194.5 867 241.5 917c-57 37.5-18.5 72.5 6 71m0 0c23 3 30.473-.46 46.511-4m-46.511 4c-4.762-11.716-5.722-19.784-4-31.5m163.994 18c6.676 15.463 14.401 21.967 36.506 29m0 0c17.915 7.4 28.604 7.35 48 5m-48-5c-6-21.5-4.383-32.59 2-41m46 46c-7-21-4-28.5-1-39m1 39c18.308 1.23 32.603-7.04 44.5-21.411m147-253.589c-42.305 9.23-66.121 52.997-84.902 103m0 0C593.5 867.5 602 897.5 618 925m-19.402-88.5c-20.788 55.347-35.406 118.336-62.098 150.589M618 925s23.84-2.418 26-1m-26 1c-39.292 9.264-49.399 40.977-41.404 61.5m28.904 18c12.289 7.07 21.032 7.03 38.5 2m-38.5-2c-6.423-24.955-4.655-31.695 2-39m-2 39c-14.084 1.63-24.386-6.4-28.904-18m67.404 20c-5.858-17.701-4.987-25.095-.5-36.5m.5 36.5c58.119 7.96 133.617-3.2 178-42.986m-90.5-402.463C808.729 654.44 867.322 745.604 860.042 873.5M536.5 987.089l40.096-.589m283.446-113a399 399 0 0 1-1.542 19c-3.143 29.907-16.737 53.298-36.5 71.014m38.042-90.014c106.458-55.5 0-169-1.542-244.5-2.426-118.694 69-184.5 130-149s-7.771 105.736-12 143.5c-7 62.5 27.33 119.387 30.5 170.5 7 113-119.5 197.5-185 169.514" stroke="#000" stroke-width="14" stroke-linecap="round"/>
  <path d="M390.631 450.953c30.136-24.675 63.423-19.179 91.088.08" stroke="#000" stroke-width="14" stroke-linecap="round"/>
  <path d="M769 252c-18.186-33.677-64.008-72.013-92.5-86 7-20.5 76.66-79.314 92.5-68 18.9 13.5 12.138 127.419 0 154m-541-23.5c18.186-33.677 79.008-68.513 107.5-82.5-7-20.5-71.66-81.314-87.5-70-22.4 16-32.138 125.919-20 152.5" fill="#ffa1a9"/>
  <circle cx="554.8" cy="336.8" r="32.8" fill="#353535"/>
  <circle cx="340.8" cy="336.8" r="32.8" fill="#353535"/>
  <ellipse cx="567" cy="365.5" rx="21" ry="10.5" fill="#89d4ff"/>
  <ellipse cx="325" cy="365.5" rx="21" ry="10.5" fill="#89d4ff"/>
</svg>
