<svg width="1080" height="772" viewBox="0 0 1080 772" fill="none" xmlns="http://www.w3.org/2000/svg">
  <path d="M1015.5 511.5C859 797 53 689 63.5 493.5c8.5-50 24.5-89 47.283-113.5 3.717-48.5 8.217-94.5 19.5-126.5C228.5 22.5 814 19.5 954.5 234.5c23.5 52.5 20.5 112 23.5 158 38.91 45.184 41.3 71.549 37.5 119" fill="#a3c4ed"/>
  <path d="M1015.5 511.5C859 797 53 689 63.5 493.5c8.5-50 24.5-89 47.283-113.5 3.717-48.5 8.217-94.5 19.5-126.5C228.5 22.5 814 19.5 954.5 234.5c23.5 52.5 20.5 112 23.5 158 38.91 45.184 41.3 71.549 37.5 119Z" stroke="#000" stroke-width="14"/>
  <path d="M544.5 122.499c167.262-.897 352 70.001 366.5 130 8.003 33.118-8.051 71.227-41.5 105.639-55.175 56.764-161.384 103.06-325 102.361-153.245-.654-272.926-40.653-335.223-91-32.451-26.225-49.332-55.258-47.277-83 3.989-53.852 103.451-162.503 382.5-164" fill="#8ea7c7"/>
  <path d="M209.277 369.499c-32.451-26.225-49.332-55.258-47.277-83 3.989-53.852 103.451-162.503 382.5-164 167.262-.897 352 70.001 366.5 130 8.003 33.118-8.051 71.227-41.5 105.639m-660.223 11.361c62.297 50.347 181.978 90.346 335.223 91 163.616.699 269.825-45.597 325-102.361m-660.223 11.361c126.223-143.5 501.223-168 660.223-11.361" stroke="#000" stroke-width="14"/>
  <path d="M572.306 595.362c1.11-.491 4.081-2.226 6.506-3.099 3.417-1.23 6.883-2.478 9.124-2.981 2.184-.489 4.341-1.239 7.07-1.675 2.709-.432 6.929-.436 10.056.119 1.254.222 1.866 1.675 2.547 2.541.769.977.689 2.236.318 3.226-1.013 2.71-4.957 4.096-8.488 5.957-3.994 2.105-8.368 2.733-12.721 3.727-4.327.988-9.043 1.121-12.541.566-3.636-.577-5.713-4.404-6.519-5.456-1.773-2.313 1.416-6.142 2.781-7.821 1.644-2.023 4.086-4.523 6.821-6.206 3.027-1.863 6.082-2.174 8.44-2.672 2.816-.593 5.832-.619 15.855-.685 3.66-.023 6.106.929 8.347 1.735 2.235.804 4.714 2.538 6.641 3.846 1.816 1.234 2.794 3.778 3.417 5.892.59 1.998 1.119 4.952-.054 7.447-1.11 2.362-4.277 2.36-6.327 2.675-2.552.391-5.024.929-7.383 1.117-2.515.2-4.961 1.174-7.385 1.736-2.006.466-4.769.927-7.137 1.49-2.194.521-5.451 1.299-9.055 1.675-4.593.479-11.296.376-15.138-1.418-2.354-1.1-3.731-2.793-4.419-4.777-.898-2.588.927-4.963 3.215-7.631 2.177-2.539 4.406-3.788 6.333-4.97 1.811-1.112 3.658-2.296 5.646-2.919s3.969-1.365 5.957-2.171c1.886-.765 4.214-.929 6.947-1.305 1.165-.16 2.115-.744 2.675-1.115.215-.141-.3-.616-.797-.867-4.866-2.461-13.896-.255-15.884.612-1.993.87-3.351 2.603-4.842 4.094l-4.468 4.468c-1.442 1.441-1.986 3.594-2.61 5.582-.125.499-.248.991-.311 2.165-.063 1.175-.063 3.018-.063 4.917m-5.054-49.029c0 .128.128.451.354.968.099.26.163.517.292.745.129.229.322.421.52.619m35.956-14.382v3.498m-65.11 34.207c0 .129.193.58.548 1.291l.422.844.391.781m98.928-26.433v.322c0 .193 0 .514.032.807.033.294.097.55.163 1.009" stroke="#8ea7c7" stroke-width="26" stroke-linecap="round"/>
  <path d="M461.226 381.349c.38 0 .954.759 1.244 2.192-.089.676-.658 1.244-1.235 1.253s-1.146-.56-2.307-2.87m126.422-21.837c0-.379.19-1.333.856-2.862.786-1.801 2.776-2.5 4.305-2.597.773-.05 1.528.471 2.109 1.046 1.167 1.155 1.35 3.631 1.065 6.214-.388 3.531-4.117 4.704-5.071 5.853-.444.535-1.333.391-2.008.107-1.244-.854-2.399-2.009-3.451-3.25-.483-.672-.862-1.431-.678-3.936" stroke="#a49390" stroke-width="20" stroke-linecap="round"/>
  <path d="M493.527 319.068c1.025-.114 2.86-.457 3.718-.346.459.06.744.793.92 1.482.175.689.175 1.483-.052 1.949-.681.579-2.623.696-5.027.526-.93-.17-1.271-.511-1.965-1.205" stroke="#767580" stroke-width="20" stroke-linecap="round"/>
  <path d="m520.704 370.693.416-.416c.209-.209.52-.52 1.783-.212" stroke="#8b8a94" stroke-width="13" stroke-linecap="round"/>
  <path d="M603.858 309.894h1.723" stroke="#a0a0a0" stroke-width="9" stroke-linecap="round"/>
</svg>
