<svg width="1080" height="1080" viewBox="0 0 1080 1080" fill="none" xmlns="http://www.w3.org/2000/svg">
  <path d="M338.418 989.491c-18.242 5.547-25.5 5.5-38-2.5-60.257 21.099-59.001-45-22.5-71-19.5-77 21.836-126.671 34.5-141.5 17.5-20.491 2.896-57.415 2.896-57.415S189.918 708 104.097 664.232c-48.884 5.977-72.203-33.576-51.602-53.337-20.331-23.845-15.105-40.812 10.258-51.735-1.787-25.82 28.254-34.125 45.033-21.623 18.506-18.943 36.568-13.945 61.329 18.935 64.536 28.112 99.037 32.38 158.802 27.519-18.366-4.684-35.009-10.429-50-17.109-125.817-56.062-135.335-178.019-71-292.391-21-248.5 38-300 181-148 65.5-29 175-23.5 241 3 172.5-129.5 221-102.5 172.5 157 52.047 138.194 26.274 228.201-64 277.051 77.229 93.39 135.823 184.553 128.543 312.449 106.457-55.5 0-169-1.543-244.5-2.426-118.693 69-184.5 130-149 61.003 35.5-7.771 105.737-12 143.501-7 62.5 27.333 119.386 30.503 170.499 7 113-119.503 197.5-185.003 169.514-44.383 39.785-119.881 50.945-178 42.985-17.468 5.03-26.211 5.07-38.5-2-14.084 1.63-24.386-6.4-28.904-17.999l-40.096.589c-11.897 14.38-26.192 22.64-44.5 21.41-19.396 2.35-30.084 2.4-48-5-16.528-1.77-25.932-12.444-29.432-25.99-16.432.375-24.543-1.249-37.921-6-11.015 10.129-29.637 14.262-44.146 15.491" fill="#fff"/>
  <path d="M501 384c-57.804-112.98-12.629-185.376 24.5-280 31.089 1.279 51.802 5.252 97.5 21C815.681-20.153 834.867 47.05 798.5 285c14 26 31 88.5 22 143-52.52 9.517-72.292 8.009-121 7-98.486 53.07-165.5 13.5-198.5-51M385 239.5c30-53 34.336-70.313 0-116.5C240.509-7.507 189.927-.715 199.5 273.5c-1.267 9.007-30.397 65.252-28.5 72.5 6.731 25.714 60.163-8.308 74-19 55-42.5 97.048-11.618 140-87.5m112.998 589c3.502-6.999 56.501 8.501 107-4.5l-13.499 39.501c-57.499 2.5-106.067-9.885-93.501-35.001M251.5 651c3.838 5.242.19 12.857 14.5 63l-36.335-6.161C225.67 650.424 245.461 642.751 251.5 651m430.102 28c-10.791-20.136 35.001-29 75.5-87l29.5 44 18.5 27.5 25 50 17.5 39 13.5 65.5c-73 26.5-128.019 14.5-122.5-12 4.214-20.234 53-11 109-53.5l-17.5-39c-24.5 25.5-85.644 42.569-96 11.5-5-15 46-21.5 71-61.5l-18.5-27.5c-27 52-96.426 59-105 43M857.5 906l6-36 32.5-23.5c12.842 36.056 19.635 58.648 47.5 84-19.603 15.976-31.671 24.133-59.5 34-18.343-19.174-23.834-32.133-26.5-58.5M994 865c-21.964-.677-58.229-9.917-87-42 1.971-26.532.99-38.637-5.5-58 36.127 17.408 58.863 19.52 104.5 9.5 4.43 35.697 1.63 55.49-12 90.5m-7-146c-40.358 9.397-62.666 11.319-101 0l-24.5-69c42.933 14.406 68.336 14.336 115.5 3zM859.5 599c31.148 21.486 81 23 116.5 23l17-45.5c-41.5-2.5-86.5-14-113-44.5-15.873 25.913-13.503 38.689-20.5 67" fill="#797979"/>
  <path d="m467.5 479.5-30-20.5-25 10 1 11 34 9z" fill="#ffa1a9"/>
  <path d="M438 424.942c-1.755 9.743-1.948 16.407-1.5 29.5m0 0c19 31.5 59.5 20 66-1.5m-66 1.5c-22 27-56.5 13-56.5-7.5" stroke="#000" stroke-width="12" stroke-linecap="round"/>
  <path d="M471 405.942c-3.691-11.536-52.329-12-57-6-8.881 11.408 13.138 33.237 24 33.5 7.653.186 37-15 33-27.5" fill="#000"/>
  <path d="M769 252c-18.186-33.677-64.008-72.013-92.5-86 7-20.5 76.66-79.314 92.5-68 18.9 13.5 12.138 127.419 0 154m-541-23.5c18.186-33.677 79.008-68.513 107.5-82.5-7-20.5-71.66-81.314-87.5-70-22.4 16-32.138 125.919-20 152.5" fill="#ffa1a9"/>
  <circle cx="554.8" cy="336.8" r="32.8" fill="#353535"/>
  <circle cx="340.8" cy="336.8" r="32.8" fill="#353535"/>
  <path d="M375.418 919.991c17.785 26.678 14.526 43.544 3.146 54.009m-44.146 15.491c-18.242 5.547-25.5 5.5-38-2.5m38 2.5c-6.183-12.415-8.773-19.114-6.5-29m6.5 29c14.509-1.229 33.131-5.362 44.146-15.491m-82.146 12.991c-60.257 21.099-59.001-45-22.5-71-19.5-77 21.836-126.671 34.5-141.5 17.5-20.491 2.896-57.415 2.896-57.415S185.918 708 100.097 664.232c-48.884 5.977-72.203-33.576-51.602-53.337-20.331-23.845-15.105-40.812 10.258-51.735-1.787-25.82 28.254-34.125 45.033-21.623 18.506-18.943 36.568-13.945 61.329 18.935 64.536 28.112 99.037 32.38 158.802 27.519-18.366-4.684-35.009-10.429-50-17.109-125.817-56.062-135.335-178.019-71-292.391-21-248.5 38-300 181-148 65.5-29 175-23.5 241 3 172.5-129.5 221-102.5 172.5 157 52.047 138.194 26.274 228.201-64 277.051M296.418 986.991c-8.319-12.017-10.372-18.798-7.5-31m308.999-353.499c54.588-6.912 100.024-19.753 135.5-38.95m-274 224.949c-3.738 42.855-7.87 70.405-21.5 130.5-18.195 12.433-26.826 40.131-21.432 61.009m29.432 25.99c17.916 7.4 28.604 7.35 48 5m-48-5c-6-21.498-4.382-32.588 2-40.998m-2 40.998c-16.527-1.77-25.932-12.444-29.432-25.99m77.432 30.99c-7-20.999-4-28.499-1-38.999m1 38.999c18.308 1.23 32.603-7.03 44.5-21.41m147-253.589c-42.305 9.231-66.121 52.997-84.902 103m0 0c-5.098 31 3.402 61.001 19.402 88.501m-19.402-88.501c-20.787 55.348-35.406 118.336-62.098 150.589m81.5-62.088s23.84-2.419 26-1.001m-26 1.001c-39.292 9.263-49.399 40.977-41.404 61.499m28.904 17.999c12.289 7.07 21.032 7.03 38.5 2m-38.5-2c-6.423-24.954-4.655-31.693 2-38.999m-2 38.999c-14.084 1.63-24.386-6.4-28.904-17.999m67.404 19.999c-5.858-17.7-4.987-25.094-.5-36.499m.5 36.499c58.119 7.96 133.617-3.2 178-42.985m-90.5-402.463c77.229 93.39 135.823 184.553 128.543 312.449M538.417 989.58l40.096-.589m283.447-113a399 399 0 0 1-1.543 19.001c-3.143 29.906-16.737 53.298-36.5 71.013m38.043-90.014c106.457-55.5 0-169-1.543-244.5-2.426-118.693 69-184.5 130-149 61.003 35.5-7.771 105.737-12 143.501-7 62.5 27.333 119.386 30.503 170.499 7 113-119.503 197.5-185.003 169.514M378.564 974c13.378 4.751 21.489 6.375 37.921 6" stroke="#000" stroke-width="14" stroke-linecap="round"/>
  <ellipse cx="66.187" cy="587.719" rx="14.5" ry="11.5" transform="rotate(9.423 66.187 587.719)" fill="#ffc9c9"/>
  <ellipse cx="68.93" cy="630.047" rx="14.5" ry="11.5" transform="rotate(2.197 68.93 630.047)" fill="#ffc9c9"/>
  <ellipse cx="88.391" cy="561.378" rx="14.5" ry="11.5" transform="rotate(44.822 88.391 561.378)" fill="#ffc9c9"/>
  <ellipse cx="126.676" cy="555.858" rx="14.5" ry="11.5" transform="rotate(75.948 126.676 555.858)" fill="#ffc9c9"/>
  <path d="M133.999 589c-10.471-12.5-32.78-11.258-40.5 4-7.334 14.495-5.999 31 9.5 38s39.796-31.5 31-42" fill="#ffc9c9"/>
  <path d="M405 468.5c13.5 23 54.5 28.5 67.5 5" stroke="#000" stroke-width="14"/>
</svg>
