<svg width="500" height="500" viewBox="0 0 500 500" fill="none" xmlns="http://www.w3.org/2000/svg">
  <path d="M74.699 104.918c4.604 0 13.499 0 32.974-.317 12.954-.211 32.136-.952 43.65-1.597 20.676-1.157 27.994-2.357 35.348-3.319 8.584-1.123 22.388-2.667 35.369-4.168 4.181-.483 10.737-.86 20.699-1.392 6.048-.323 17.373-.109 23.971-.215 6.598-.105 8.133-.317 14.775-.85 18.338-1.469 31.36-2.462 33.773-2.783 6.269-.833 12.859-.75 18.411-1.282 2.788-.267 5.912-.32 13.418-.642 27.75-1.185 31.63.956 36.188 1.386 10.364.977 22.765 2.135 30.125 2.46 4.139.181 9.871 1.176 14.644 1.814.893.12 1.645.426 2.232.959 2.547 2.308 2.134 8.42 2.625 21.439.316 8.379.869 14.352 1.645 35.134.295 7.891.968 12.566 1.262 17.485.373 6.255 1.648 18.117 2.322 24.482.457 4.306 2.221 13.092 3.393 22.218.45 3.512.584 16.27.392 34.108-.074 6.836-.576 9.161-1.061 16.709s-1.061 20.246-2.029 31.973c-1.828 22.151-3.886 33.627-4.177 35.756-.928 6.8-1.843 22.138-2.808 34.701-1.013 13.197-.773 22.811-2.029 24.411-2.553 3.254-12.051 5.865-27.049 8.132-7.915 1.196-22.184-.099-29.977-.314-8.758-.242-14.729-.645-27.562-.01-7.858.389-18.396 1.905-43.112 3.935-24.716 2.029-63.276 4.781-83.524 6.092-21.003 1.36-23.149.67-26.431-.074-8.781-1.99-16.455-3.52-31.724-5.557-16.272-2.169-27.587-2.036-30.003-2.462-9.452-1.669-23.535-.221-36.014.102-5.962.155-10.205.959-13.406 1.815-1.821.488-6.083.645-11.312.116-2.017-.204-2.544-1.588-3.032-2.768-.991-2.394-2.035-9.26-3.198-18.549-.707-5.655-1.546-16.543-3.29-30.645-1.167-9.437-1.174-14.616-1.753-20.913-.695-7.569-.392-15.302-.101-26.743.269-10.591.098-30.911.194-42.329.112-13.327.678-16.132.968-21.436.684-12.477.29-22.055.678-26.941 1.318-16.665 1.165-22.241 3.578-35.689 1.518-8.463 1.459-13.705 2.139-20.227.833-7.989 1.448-13.564 1.939-18.396.598-5.888 1.066-18.415 1.45-31.674.121-4.178 1.151-3.101 2.41-1.498 5.233 6.667 7.845 10.582 10.182 14.225 3.165 4.933 8.709 10.043 13.833 15.587 14.33 15.503 25.117 19.909 29.829 22.452 4.019 2.169 11.042 6.775 32.348 22.715 21.307 15.94 56.606 43.24 75.174 57.727 21.034 16.412 23.986 19.182 27.09 21.119.7.436 1.547.218 9.903-7.19 8.357-7.407 24.28-22.221 34.497-32.18 10.217-9.96 14.246-14.616 19.966-21.564s13.011-16.049 18.013-22.218c10.876-13.413 14.31-18.996 22.341-28.398 2.323-2.719 8.595-10.228 17.603-20.698 6.341-7.369 10.607-13.304 14.194-17.373 2.74-3.108 6.098-6.192 10.266-9.193 5.145-5.137 7.47-6.85 9.017-7.596.779-.324 1.546-.536 2.918-.754" stroke="#000" stroke-width="20" stroke-linecap="round"/>
</svg>
