<svg width="1032" height="758" viewBox="0 0 1032 758" fill="none" xmlns="http://www.w3.org/2000/svg">
  <g clip-path="url(#a)">
    <path d="M101.993 544.072c-126.315-121.618-27.425-282.68 201.108-201.267 23.485-47.684 50.069-89.568 79.261-124.953C236.877 94.223 516.088-28.484 657.198 76.245c162.743-10.356 308.94 77.188 335.686 201.964 33.506 156.325-149.031 307.18-249.266 345.807-142.135 54.775-228.064 41.556-350.494 1.987-206.91 193.819-313.96 100.845-291.131-81.931" fill="#ff7e67"/>
    <path d="M419.522 459.105c-13.965-86.287-56.341-216.618-56.341-216.618-28.075 36.74-41.442 58.329-60.277 98.71 30.879 114.908 51.132 177.596 94.1 285.42 46.109 18.164 79.027 25.464 146.722 34.842-80.066-61.987-108.544-105.593-124.204-202.354m379.549-115.919c-37.31-98.982-74.655-219.639-88.663-267.594-56.602-1.443-85.61 4.006-136.093 16.607 0 0 30.776 163.955 61.82 265.976 32.892 108.093 88.549 146.346 103.652 270.115 42.152-20.581 64.887-34.102 103.288-62.631.878-32.915-6.695-123.49-44.004-222.473" fill="#fff"/>
    <path d="M657.198 76.245c162.743-10.356 308.94 77.188 335.686 201.964 33.506 156.325-149.031 307.18-249.266 345.807-142.135 54.775-228.064 41.556-350.494 1.987-206.91 193.819-313.96 100.845-291.131-81.931-126.315-121.618-27.425-282.68 201.108-201.267 23.485-47.684 50.069-89.568 79.261-124.953M657.198 76.245c-41.15 2.618-83.358 11.496-124.961 27.614-54.86 21.253-105.396 60.078-149.875 113.993M657.198 76.245C516.088-28.484 236.877 94.223 382.362 217.852" stroke="#000" stroke-width="14" stroke-linecap="round"/>
    <path d="M603.665 243.594c-131.626-22.547-172.197 68.321-83.602 130.376-93.348 166.367 62.654 232.704 170.198 111.369" stroke="#000" stroke-width="14" stroke-linecap="round"/>
    <circle cx="902.228" cy="279.483" r="25.884" transform="rotate(-6.957 902.228 279.483)" fill="#000"/>
  </g>
  <defs>
    <clipPath id="a">
      <path fill="#fff" d="M0 0h1032v758H0z"/>
    </clipPath>
  </defs>
</svg>
