<svg width="500" height="500" viewBox="0 0 500 500" fill="none" xmlns="http://www.w3.org/2000/svg">
  <path d="M208.065 322.141c-4.296 0-11.047-.371-15.65-.934-8.731-1.068-12.299-3.187-15.306-4.13-3.175-.996-7.68-3.178-11.261-5.625-2.981-2.037-5.438-4.501-7.978-6.849-2.927-2.707-4.971-6.278-7.601-9.476-2.153-2.619-3.755-5.439-5.351-8.538-1.874-3.639-4.034-6.472-5.445-9.479-1.425-3.038-2.531-6.937-3.099-10.135-.583-3.276-1.684-6.565-2.16-13.31-.606-8.594.273-21.778.842-27.313.374-3.643 1.875-6.48 3.094-9.487 1.194-2.946 2.531-6.002 4.034-9.008 1.689-3.007 3.193-5.259 3.941-6.757.378-.754.749-1.497 1.132-2.826m-1.126-4.504c-1.307-1.678-3.559-6.171-5.062-11.055a156 156 0 0 1-2.818-10.329c-.91-3.871-.938-9.189-1.596-13.688-1.444-9.858 2.888-15.568 5.433-20.466 1.689-3.25 4.031-5.822 7.314-6.863 3.135-.995 9.262 1.21 15.01 2.153 3.556.584 7.967 2.064 12.015 3.19 3.038.845 7.213 2.061 11.261 3.004 3.109.724 6.469 1.872 9.76 2.722 3.397.877 6.472 1.965 9.946 3.468.851.377 1.594.749 2.348 1.033.755.285 1.498.471 3.953 1.788m0 0c3.35 0 10.495-.372 20.604-.656 3.223-.091 6.027-.47 9.214-.563 2.09-.061 12.314-.47 27.043-.377 7.533.047 10.5 1.404 13.507 2.063 3.006.468 5.259 1.408 6.756 1.782l2.264.566m0 0c2.618 0 6.734-.743 11.711-1.779 5.239-1.091 10.788-2.905 15.576-5.062 6.097-2.745 10.605-4.228 13.803-5.54 3.11-1.276 6.002-2.629 9.009-3.381 3.006-.752 5.259-1.315 6.57-1.225 3.037.209 2.821 7.382 4.975 18.727 1.229 6.475 1.787 10.253 2.446 13.729.096 2.334.282 4.417.563 7.773.096 2.613.096 7.072-.467 12.229m0 0c.929 2.055 3.93 5.056 5.903 8.15 2.902 4.55 5.346 7.041 7.227 9.949 2.307 3.568 3.941 6.472 5.912 10.039 1.857 3.363 2.533 6.568 3.569 10.135 1.102 3.795 1.971 7.502 2.63 13.864 1.51 14.59-.839 18.783-1.591 22.64-.889 4.564-4.124 10.039-5.72 12.952-1.544 2.819-4.215 5.161-8.156 9.003-3.672 3.581-6.756 6.855-9.296 9.11-2.753 2.445-5.906 4.13-8.631 6.194-3.616 2.738-7.41 3.938-10.788 5.819-4.703 2.618-7.882 3.378-11.356 4.881-4.004 1.733-8.722 4.69-14.535 7.221-4.908 2.137-7.891 3.663-11.365 4.606-.85.188-1.593.374-2.348.563s-1.497.374-3.952 1.129m-5.067-2.253c.371 2.427 1.126 7.669 1.686 11.528.648 4.469 1.692 7.413 2.626 10.419.908 2.921 1.69 6.374 1.974 10.974.218 3.534 1.405 7.224 1.689 11.824.207 3.352 1.033 6.66 1.593 10.044.566 8.035.938 19.329 1.597 27.166.095 5.586.095 15.991.095 26.711m-107.539 3.378c.186-1.306.935-4.301 1.219-10.672.235-5.277.842-10.52 1.5-17.71.417-4.549.096-12.742-.368-17.046-.465-4.305-1.394-4.49-3.266-4.586-8.264-.423-11.641.467-17.533.934-16.589 1.316-19.636-.838-22.642-2.057s-6.002-3.838-8.263-6.377c-2.237-2.513-3.189-6.841-5.067-10.506-1.505-2.938-2.627-6.098-4.13-9.104-1.654-3.307-3.001-7.128-4.504-10.135-1.585-3.169-4.499-6.373-8.156-10.506-2.612-2.952-4.788-5.259-8.538-8.823-2.626-2.495-5.265-2.635-5.738-3.572-1.591-3.155 8.711-.386 11.717-.102 3.064.29 6.002 1.405 9.009 2.157 3.853.963 8.254 3.561 11.26 4.597 3.218 1.108 6.002 3.468 9.009 5.532 3.193 2.191 5.63 5.064 7.885 7.319 2.263 2.263 3.567 5.436 5.163 9.096 1.799 4.123 3.471 7.038 6.095 9.859 2.351 2.527 13.062 2.449 19.706 1.421 3.142-.486 6.002-2.53 8.356-4.687 2.517-2.307 3.659-5.906 4.603-8.913.942-3.005 2.063-6.002 2.722-9.194.096-2.055.281-3.947.563-6.374.096-1.683.096-4.284.096-6.964" stroke="#000" stroke-width="20" stroke-linecap="round"/>
  <path d="M189.435 437.006c-5.987-1.277-16.31-5.574-23.201-7.948-7.193-2.479-13.755-5.807-20.645-8.813-6.906-3.014-11.613-9.02-16.781-14.187-5.385-5.385-13.31-12.02-21.065-18.704-9.573-8.251-15.058-15.691-20.013-22.581-4.678-6.506-8.387-14.607-11.833-21.936-3.44-7.318-6.026-15.897-8.82-23.226-2.93-7.691-5.386-16.336-6.67-23.226-1.301-6.982-3.439-13.755-4.949-21.71-2.292-12.079-2.36-19.142-2.587-67.801-.072-15.518 3.22-22.31 6.013-29.201 2.738-6.752 5.8-13.755 9.246-20.645 3.534-7.069 8.167-13.755 11.826-20.646 3.977-7.492 10.948-13.755 16.555-20.432 4.993-5.948 12.458-10.536 20.419-15.704 7.087-4.6 12.684-9.464 19.362-13.122 6.459-3.54 12.678-7.955 19.568-10.33 7.032-2.423 13.755-5.367 20.645-7.742 7.194-2.478 13.756-5.806 20.646-7.529 6.802-1.7 13.755-2.148 34.568-2.8 25.082-.785 63.059-.226 69.95 1.284 6.76 1.481 13.755 2.361 20.645 5.155 6.635 2.69 13.755 3.658 20.646 6.664 7.061 3.081 12.903 7.73 19.355 11.827 6.958 4.418 12.903 8.806 19.142 12.903 6.115 4.015 11.387 10.949 20.207 19.768 5.826 5.826 9.271 11.826 13.348 17.645 4.368 6.234 7.949 13.536 11.62 20.427 3.426 6.43 5.8 13.755 9.032 20.645 3.041 6.481 3.658 13.755 6.452 20.646 2.69 6.634 3.658 13.755 4.31 22.787 1.296 17.96.226 46.452-1.497 53.343-1.723 6.89-4.29 13.755-6.452 20.645-2.125 6.777-4.29 13.755-7.735 20.646-3.365 6.728-5.587 13.755-8.82 20.858-3.832 8.421-6.239 17.413-9.245 24.304-3.081 7.061-7.729 12.903-11.181 19.568-4.973 9.602-13.323 13.981-19.561 18.077-6.382 4.191-11.826 10.097-18.065 16.336-5.604 5.604-11.826 10.536-18.278 14.846-7.165 4.786-12.903 8.593-19.355 11.193-6.891 2.149-15.033 3.878-22.768 3.239-3.052-.639-4.329-1.916-5.646-3.232" stroke="#000" stroke-width="20" stroke-linecap="round"/>
</svg>
