<svg width="500" height="500" viewBox="0 0 500 500" fill="none" xmlns="http://www.w3.org/2000/svg">
  <path d="M211.917 315.506c-3.901 0-10.031-.337-14.21-.849-7.928-.969-11.168-2.893-13.898-3.75-2.883-.904-6.973-2.885-10.225-5.107-2.707-1.85-4.938-4.087-7.244-6.219-2.658-2.458-4.514-5.7-6.902-8.604-1.954-2.378-3.409-4.939-4.859-7.753-1.701-3.304-3.663-5.877-4.943-8.607-1.294-2.758-2.298-6.298-2.815-9.202-.529-2.975-1.528-5.961-1.96-12.085-.551-7.804.248-19.775.764-24.801.34-3.308 1.702-5.884 2.809-8.614 1.085-2.675 2.298-5.45 3.663-8.18 1.534-2.73 2.899-4.775 3.579-6.134.342-.685.68-1.36 1.027-2.567m-1.022-4.09c-1.186-1.523-3.231-5.603-4.596-10.038a141 141 0 0 1-2.559-9.378c-.826-3.515-.851-8.344-1.449-12.429-1.311-8.951 2.622-14.135 4.933-18.583 1.533-2.951 3.66-5.286 6.641-6.232 2.847-.903 8.41 1.099 13.629 1.956 3.229.529 7.234 1.873 10.91 2.896 2.758.767 6.549 1.871 10.225 2.727 2.823.658 5.874 1.7 8.862 2.472 3.084.797 5.877 1.784 9.031 3.149.772.343 1.447.68 2.132.938.685.259 1.36.427 3.589 1.623m0 0c3.042 0 9.529-.337 18.708-.595 2.927-.083 5.473-.427 8.367-.511 1.897-.056 11.181-.427 24.554-.343 6.841.043 9.535 1.276 12.265 1.874 2.73.424 4.775 1.278 6.135 1.618l2.055.514m0 0c2.378 0 6.115-.675 10.634-1.616a70.6 70.6 0 0 0 14.143-4.596c5.536-2.493 9.629-3.839 12.533-5.03 2.824-1.159 5.45-2.388 8.18-3.07 2.73-.683 4.775-1.194 5.966-1.112 2.757.189 2.561 6.702 4.517 17.003 1.116 5.88 1.623 9.31 2.221 12.467.087 2.119.256 4.01.511 7.057.087 2.373.087 6.422-.424 11.104m0 0c.844 1.866 3.569 4.591 5.36 7.401 2.635 4.13 4.855 6.393 6.562 9.033 2.095 3.24 3.579 5.877 5.368 9.115 1.687 3.054 2.301 5.964 3.241 9.203 1.001 3.446 1.79 6.812 2.388 12.589 1.371 13.247-.762 17.055-1.444 20.557-.808 4.144-3.745 9.115-5.195 11.761-1.402 2.559-3.826 4.685-7.405 8.174-3.334 3.251-6.135 6.225-8.44 8.272-2.5 2.22-5.363 3.75-7.838 5.624-3.283 2.486-6.727 3.576-9.795 5.283-4.271 2.378-7.157 3.068-10.311 4.433-3.636 1.573-7.92 4.258-13.198 6.556-4.456 1.94-7.165 3.326-10.319 4.182-.772.171-1.447.34-2.132.511-.685.172-1.36.34-3.589 1.025m-4.601-2.045c.337 2.204 1.022 6.963 1.531 10.468.589 4.057 1.536 6.73 2.385 9.46.824 2.653 1.534 5.788 1.792 9.964.198 3.209 1.275 6.559 1.534 10.736.188 3.044.938 6.048 1.446 9.121.514 7.295.852 17.55 1.45 24.667.087 5.071.087 14.519.087 24.253m-97.646 3.067c.168-1.186.848-3.906 1.106-9.69.214-4.792.765-9.553 1.363-16.081.378-4.13.087-11.569-.335-15.478s-1.265-4.077-2.965-4.164c-7.503-.383-10.57.425-15.92.849-15.062 1.195-17.829-.762-20.559-1.869s-5.45-3.484-7.503-5.789c-2.031-2.282-2.896-6.212-4.601-9.54-1.367-2.668-2.385-5.537-3.75-8.267-1.501-3.003-2.725-6.472-4.09-9.202-1.438-2.878-4.084-5.787-7.405-9.54-2.372-2.68-4.348-4.775-7.753-8.011-2.384-2.265-4.78-2.392-5.209-3.243-1.445-2.865 7.909-.351 10.639-.092 2.781.263 5.449 1.275 8.179 1.958 3.499.874 7.495 3.233 10.225 4.174 2.921 1.006 5.45 3.149 8.18 5.023 2.899 1.989 5.112 4.598 7.16 6.646 2.054 2.054 3.238 4.936 4.688 8.259 1.633 3.744 3.151 6.39 5.534 8.951 2.134 2.295 11.861 2.224 17.893 1.291 2.853-.441 5.45-2.298 7.587-4.256 2.286-2.094 3.323-5.363 4.179-8.093.856-2.728 1.874-5.449 2.472-8.348.087-1.866.256-3.584.511-5.787.087-1.529.087-3.891.087-6.324" stroke="#000" stroke-width="20" stroke-linecap="round"/>
  <path d="M195.001 419.804c-5.437-1.16-14.81-5.062-21.066-7.218-6.532-2.25-12.49-5.272-18.746-8.002-6.271-2.736-10.545-8.19-15.237-12.882-4.89-4.89-12.086-10.914-19.127-16.983-8.692-7.492-13.673-14.247-18.172-20.503-4.248-5.908-7.616-13.263-10.744-19.918-3.124-6.645-5.472-14.435-8.008-21.09-2.662-6.983-4.892-14.832-6.058-21.089-1.181-6.34-3.122-12.49-4.493-19.713-2.081-10.967-2.144-17.381-2.349-61.563-.065-14.091 2.923-20.258 5.46-26.514 2.486-6.131 5.266-12.49 8.395-18.746 3.209-6.419 7.416-12.49 10.738-18.746 3.612-6.804 9.941-12.49 15.032-18.553 4.534-5.401 11.312-9.567 18.541-14.259 6.435-4.177 11.517-8.594 17.58-11.916 5.865-3.213 11.511-7.223 17.768-9.378 6.385-2.2 12.49-4.874 18.746-7.03 6.531-2.25 12.49-5.273 18.746-6.837 6.176-1.544 12.49-1.95 31.388-2.542 22.775-.713 57.258-.205 63.514 1.166 6.139 1.344 12.49 2.144 18.747 4.68 6.024 2.443 12.489 3.322 18.746 6.052 6.411 2.797 11.716 7.018 17.574 10.738 6.318 4.012 11.716 7.996 17.381 11.716 5.552 3.646 10.34 9.941 18.348 17.95 5.29 5.289 8.418 10.738 12.121 16.022 3.965 5.66 7.217 12.29 10.55 18.547 3.111 5.838 5.267 12.489 8.202 18.746 2.76 5.885 3.321 12.489 5.858 18.746 2.442 6.024 3.321 12.489 3.913 20.691 1.177 16.308.205 42.179-1.359 48.435s-3.896 12.49-5.858 18.746c-1.93 6.154-3.896 12.49-7.024 18.746-3.055 6.11-5.073 12.49-8.008 18.94-3.479 7.646-5.665 15.811-8.395 22.068-2.797 6.411-7.018 11.716-10.152 17.767-4.515 8.719-12.097 12.695-17.762 16.415-5.794 3.805-10.738 9.168-16.403 14.833-5.089 5.088-10.738 9.566-16.596 13.479-6.506 4.346-11.717 7.804-17.575 10.164-6.256 1.951-13.649 3.521-20.673 2.941-2.771-.58-3.931-1.74-5.126-2.935" stroke="#000" stroke-width="20" stroke-linecap="round"/>
</svg>
